<svg xmlns="http://www.w3.org/2000/svg" xml:space="preserve" viewBox="10 10 220 220" style="fill: white;"><path style="stroke:#caf52d;stroke-width:0;stroke-dasharray:none;stroke-linecap:butt;stroke-dashoffset:0;stroke-linejoin:miter;stroke-miterlimit:4;fill-rule:nonzero;opacity:1" d="M-77.816-44.802a33.015 33.015 0 0 1 33.014-33.014h89.604a33.015 33.015 0 0 1 33.014 33.014v89.604c0 18.233-14.78 33.014-33.014 33.014h-89.604c-18.233 0-33.014-14.78-33.014-33.014z" transform="translate(60 60)scale(.64254)"/><path style="stroke:#caf52d;stroke-width:0;stroke-dasharray:none;stroke-linecap:butt;stroke-dashoffset:0;stroke-linejoin:miter;stroke-miterlimit:4;fill-rule:nonzero;opacity:1" d="M-77.816-44.802a33.015 33.015 0 0 1 33.014-33.014h89.604a33.015 33.015 0 0 1 33.014 33.014v89.604c0 18.233-14.78 33.014-33.014 33.014h-89.604c-18.233 0-33.014-14.78-33.014-33.014z" transform="translate(180 180)scale(.64254)"/><path style="stroke:#b34399;stroke-width:0;stroke-dasharray:none;stroke-linecap:butt;stroke-dashoffset:0;stroke-linejoin:miter;stroke-miterlimit:4;fill-rule:nonzero;opacity:1" d="M0-24.704c13.636 0 24.704 11.068 24.704 24.704S13.636 24.704 0 24.704-24.704 13.636-24.704 0-13.636-24.704 0-24.704z" transform="translate(180 60)scale(2.024)"/><path style="stroke:#b34399;stroke-width:0;stroke-dasharray:none;stroke-linecap:butt;stroke-dashoffset:0;stroke-linejoin:miter;stroke-miterlimit:4;fill-rule:nonzero;opacity:1" d="M0-24.704c13.636 0 24.704 11.068 24.704 24.704S13.636 24.704 0 24.704-24.704 13.636-24.704 0-13.636-24.704 0-24.704z" transform="translate(60 180)scale(2.024)"/></svg>
